PathFileType	4	(X/Y/Z)	OpenSim_Sub06_EMGStiffKnee_Gyro.trc
DataRate	CameraRate	NumFrames	NumMarkers	Units	OrigDataRate	OrigDataStartFrame	OrigNumFrames
100	100	27	8	m	100	2717	5432
Frame#	Time	torso_imu_offset_imu	pelvis_imu_offset_imu	tibia_r_imu_offset_imu	femur_r_imu_offset_imu	tibia_l_imu_offset_imu	femur_l_imu_offset_imu	toes_r_imu_offset_imu	toes_l_imu_offset_imu
				X1	Y1	Z1	X2	Y2	Z2	X3	Y3	Z3	X4	Y4	Z4	X5	Y5	Z5	X6	Y6	Z6	X7	Y7	Z7	X8		Y8	Z8	

2717	27.16000000	-0.55936700	-0.03209500	0.12157500	-0.82362500	0.07194100	0.19742700	-0.36192400	0.06414800	-2.34573700	-0.40375000	1.36246100	1.62436800	2.05180400	-0.06962400	0.79754400	0.55254800	-0.58932200	1.23326200	0.29464800	-4.97963600	-2.05102400	0.01270500	0.02640000	0.17431200
2718	27.17000000	-0.61932600	-0.02591900	0.13039300	-0.86448000	0.11641600	0.11261300	-0.36371000	-0.01909100	-2.28185600	-0.14852900	1.41043900	1.71355200	1.71064300	-0.02131600	0.73102700	0.82463700	-0.34498300	1.14786700	0.34444800	-4.98653900	-2.33909700	0.11517100	0.03208700	0.07585100
2719	27.18000000	-0.67434600	-0.03407800	0.13327700	-0.81948100	0.12755500	0.05410800	-0.24937600	-0.11031900	-2.12396700	0.12826900	1.39191800	1.80094500	0.81101800	-0.12708900	0.62005000	1.04390400	-0.17940400	1.00010200	0.41772900	-4.73420200	-2.56673600	0.10527500	-0.01396800	0.03317700
2720	27.19000000	-0.69953900	-0.07275700	0.13071300	-0.71901400	0.13660600	0.04996800	-0.05683700	-0.22593900	-1.90235400	0.38514500	1.22060800	1.84633000	-0.23156500	-0.31480900	0.42412200	1.02696200	-0.08472000	0.87663100	0.69227600	-4.54271800	-2.84863100	0.10511600	0.02217000	-0.01839200
2721	27.20000000	-0.71360900	-0.12287600	0.11342500	-0.60194400	0.17491900	0.06042200	-0.12521300	-0.32570600	-1.61091400	0.57662600	1.00595300	1.84213200	-1.05063500	-0.40093800	0.20604600	0.73338200	-0.05772200	0.88819000	0.98450600	-4.26055000	-2.97959500	0.19857200	-0.00728000	-0.05986500
2722	27.21000000	-0.70995200	-0.13673200	0.06720900	-0.48022500	0.20839700	0.07239900	-0.20168500	-0.30313100	-1.26722900	0.67313200	0.83878700	1.77818900	-1.58127400	-0.39486700	0.14008700	0.32355800	-0.07750100	0.96412600	0.51884600	-3.81966600	-2.78206400	0.14781100	-0.02636400	-0.08064300
2723	27.22000000	-0.71345600	-0.12477100	0.00385000	-0.36777300	0.21840900	0.06061700	-0.32048900	-0.31547600	-0.99762100	0.72803900	0.76355700	1.66287600	-1.75308100	-0.38694100	0.10835300	-0.08182300	-0.09164500	0.99776700	-1.33317300	-2.06230300	-2.01933900	0.11619500	-0.10350600	-0.08062700
2724	27.23000000	-0.74006700	-0.12095900	-0.07850100	-0.26730500	0.21177500	0.06865900	-0.55760000	-0.45867200	-0.86712900	0.74334900	0.78914900	1.50186800	-1.62704600	-0.35453700	0.11874400	-0.37502900	-0.06694000	1.02706300	-2.55398300	1.43615000	-0.66014300	0.12935000	-0.07890500	-0.11985700
2725	27.24000000	-0.75204600	-0.15869800	-0.16119700	-0.16102100	0.18377100	0.09422200	-0.82005900	-0.76430800	-0.82579800	0.59303600	0.87971800	1.33359000	-1.16228900	-0.31759200	0.20104000	-0.49796600	-0.08014400	1.01880200	-2.61819700	3.35606600	-0.09595600	0.20399700	-0.16261200	-0.13945200
2726	27.25000000	-0.75723700	-0.22139900	-0.25365700	-0.08059000	0.13255700	0.16504900	-1.50140500	-1.35351700	-0.71736900	0.25414400	0.99095000	1.21196500	-0.51431500	-0.25257600	0.29056000	-0.51322600	-0.14937700	0.99894400	-2.06854700	2.90940200	-0.37628600	0.16690200	-0.22982300	-0.12924400
2727	27.26000000	-0.74517100	-0.26083100	-0.31204600	-0.08103400	0.09197400	0.27834600	-2.41592700	-1.85326100	-0.26922500	-0.10861000	1.08000900	1.21788700	0.07040100	-0.19682900	0.35724500	-0.50307200	-0.18186800	0.95694100	-1.51709800	2.62394700	-0.39646100	0.16228400	-0.24758500	-0.10975200
2728	27.27000000	-0.73170800	-0.27422100	-0.33268100	-0.10458700	0.10151900	0.33588600	-3.03262800	-1.74915100	0.60147000	-0.41771300	1.11477400	1.27090000	0.52452600	-0.16013100	0.38430300	-0.45363800	-0.15890100	0.95665800	-1.20955300	2.96010400	0.14010400	0.10865800	-0.28539000	-0.07297700
2729	27.28000000	-0.74484700	-0.31647200	-0.36131400	-0.12227500	0.15597800	0.36011300	-2.93837700	-1.17942600	1.65348900	-0.69949700	1.05132500	1.27135100	0.80843800	-0.13876100	0.38831200	-0.33178300	-0.13704200	1.00829700	-1.03806700	3.51706300	0.92427400	0.10942800	-0.26371600	-0.03541700
2730	27.29000000	-0.79640000	-0.38479400	-0.38238300	-0.14354400	0.22892700	0.37850400	-2.41500800	-0.55449400	2.55713400	-0.89481600	0.93979800	1.21705600	0.90603400	-0.12850200	0.38499300	-0.16362900	-0.15412900	1.06759500	-0.82456100	3.88377900	1.57724900	0.07381900	-0.27015000	0.00264000
2731	27.30000000	-0.85658500	-0.41521500	-0.37542400	-0.20361000	0.29027000	0.33212500	-1.77600000	-0.06434100	3.17755800	-0.97470700	0.84263000	1.16590900	0.79663600	-0.10868100	0.37747300	-0.01136900	-0.18745200	1.11600000	-0.57158100	4.07798100	2.01222700	0.03806300	-0.26818200	0.03593500
2732	27.31000000	-0.90476600	-0.40326000	-0.36032400	-0.28690200	0.33568800	0.28337200	-1.11637400	0.27201000	3.67218500	-1.01443700	0.75130800	1.14275600	0.47447800	-0.09549700	0.37345000	0.07039700	-0.18179300	1.15881900	-0.30720200	4.19572700	2.30656700	0.03256800	-0.26330600	0.04885700
2733	27.32000000	-0.97384600	-0.38754800	-0.34744800	-0.35389900	0.35701200	0.22582000	-0.56582800	0.51329300	4.14320200	-1.02732700	0.65932600	1.13331800	0.07769300	-0.09560800	0.36226500	0.14281400	-0.12438500	1.15594200	-0.10159500	4.29073800	2.49428800	0.05219000	-0.24391300	0.04653000
2734	27.33000000	-1.02742100	-0.37761200	-0.34249500	-0.40751300	0.39392200	0.16444000	-0.16025700	0.63705600	4.50290600	-1.03231200	0.52169800	1.13234000	-0.31090600	-0.09971300	0.33428900	0.26046900	-0.03532000	1.10929600	0.01589200	4.41394100	2.60292700	0.04416800	-0.24289700	0.05072800
2735	27.34000000	-1.05642700	-0.35939300	-0.32854600	-0.42642600	0.44425900	0.11920600	0.14476600	0.74126100	4.69146200	-1.01531100	0.34191500	1.09232600	-0.55424900	-0.11748300	0.29969900	0.37732800	0.06171600	1.04821000	0.03104400	4.52655200	2.63808700	0.01886300	-0.23566900	0.06483200
2736	27.35000000	-1.05187900	-0.33800900	-0.31601000	-0.41657000	0.49373700	0.08180200	0.38648100	1.00489900	4.75596900	-0.95413900	0.13095800	0.97378100	-0.63737300	-0.08327300	0.29721400	0.41531900	0.14440900	1.00629200	-0.05605600	4.58161800	2.61991100	-0.00347200	-0.19503000	0.08060300
2737	27.36000000	-1.03657300	-0.32488200	-0.29451900	-0.38171000	0.51389300	0.03640300	0.59256300	1.25870000	4.72150700	-0.77328900	-0.08969600	0.78127900	-0.53657300	-0.06030600	0.34650400	0.35217700	0.20722400	1.00395300	-0.20118600	4.57027600	2.55303000	-0.00684400	-0.18257300	0.09769400
2738	27.37000000	-1.01001600	-0.29851300	-0.28123500	-0.33335500	0.51581600	0.02070200	0.65272100	1.20835500	4.66623700	-0.57899600	-0.29262100	0.54677000	-0.31023500	-0.04440200	0.43019700	0.27346900	0.21864800	1.02144000	-0.29800100	4.41028400	2.40127000	-0.01005000	-0.11467700	0.10655500
2739	27.38000000	-0.98483000	-0.26997300	-0.26460400	-0.26055500	0.50593700	0.02210200	0.58007400	0.88457100	4.70803800	-0.36314700	-0.45473300	0.29006700	-0.09034700	-0.02165300	0.51683500	0.21844600	0.15237300	0.99063500	-0.32971900	4.18077000	2.22321600	0.02185600	-0.14449200	0.12964800
2740	27.39000000	-0.94249400	-0.22611800	-0.24897800	-0.16796900	0.46470600	0.04120800	0.54439100	0.55449400	4.96127300	-0.11529400	-0.58511100	0.03979200	0.17652500	0.01215500	0.58154900	0.17868300	0.05248300	0.92242300	-0.38372900	3.98666200	2.14231600	-0.04304600	-0.14354000	0.15027800
2741	27.40000000	-0.89879400	-0.19842700	-0.23555600	-0.04278100	0.41880400	0.08365300	0.70797700	0.42144900	5.36936400	0.19672500	-0.71703100	-0.19150800	0.35279900	0.05102500	0.64902700	0.11739000	-0.02845000	0.83919100	-0.48733600	3.76010700	2.26358700	-0.00236700	-0.15093900	0.17423300
2742	27.41000000	-0.83940000	-0.20741800	-0.23999600	0.08557200	0.34217900	0.12915100	1.05753600	0.42558400	5.66760800	0.68382200	-0.84079700	-0.50949200	0.43008900	0.05151200	0.71190400	0.03116200	-0.04753900	0.78346700	-0.53606100	3.43727100	2.54145400	-0.05322100	-0.17738600	0.20520400
2743	27.42000000	-0.77908900	-0.20056300	-0.23829600	0.20060000	0.24231400	0.19528400	1.45542100	0.37068900	5.67311100	1.28963300	-0.91594500	-0.87005500	0.41313400	0.03903400	0.75784200	-0.03889600	-0.02168800	0.73858700	-0.38364400	3.01778600	2.86883600	-0.02195100	-0.19289200	0.22623500
